#N canvas 990 290 578 297 12;
#X msg 101 53 \$1 1000;
#X msg 169 53 0 1000;
#X obj 140 161 *~ 100;
#N canvas 0 50 450 250 (subpatch) 0;
#X array array1 100 float 3;
#A 0 0 0 0 0 0 0 0 0 0 0 0 0 0 0 0 0 0 0 0 0 0 0 0 0 0 0 0 0 0 0 0
0 0 0 0 0 0 0 0 0 0 0 0 0 0 0 0 0 0 0 0 0 0 0 0 0 0 0 0 0 0 0 0 0 0
0 0 0 0 0 0 0 0 0 0 0 0 0 0 0 0 0 0 0 0 0 0 0 0 0 0 0 0 0 0 0 0 0 0
0;
#X coords 0 1 100 -1 200 140 1;
#X restore 354 132 graph;
#X msg 16 163 set array1;
#X obj 140 203 tabread4~;
#X obj 140 230 *~ 0.05;
#X obj 127 262 dac~;
#X text 62 54 Liga;
#X text 218 53 Desliga;
#X text 144 103 frequencia do phasor;
#X text 196 132 repete rampa de 0 a 1;
#X text 189 161 ...agora \, de 0 a 100;
#X text 19 125 manda tabread;
#X text 19 142 ler array1;
#X obj 169 7 r desliga;
#X obj 140 84 line~;
#X obj 16 96 loadbang;
#X text 352 96 array1;
#X obj 140 132 phasor~;
#X msg 354 68 \; array1 const 0;
#X obj 354 46 loadbang;
#X obj 101 8 r freq;
#X text 419 13 zera todos os;
#X text 419 30 elementos de;
#X text 419 47 array1;
#X floatatom 60 30 5 0 0 0 - - -;
#X connect 0 0 16 0;
#X connect 1 0 16 0;
#X connect 2 0 5 0;
#X connect 4 0 5 0;
#X connect 5 0 6 0;
#X connect 6 0 7 0;
#X connect 6 0 7 1;
#X connect 15 0 1 0;
#X connect 16 0 19 0;
#X connect 17 0 4 0;
#X connect 19 0 2 0;
#X connect 21 0 20 0;
#X connect 22 0 0 0;
#X connect 26 0 0 0;
