#N canvas 79 326 626 359 10;
#X text 4 228 Gather up audio outputs;
#X obj 370 164 hsl 128 15 0 127 0 1 empty empty empty -2 -8 0 10 -262144
-1 -1 3200 1;
#X floatatom 367 185 5 0 0 0 - - -, f 5;
#X obj 6 87 route 0 1 2 3 4 5 6 7 8 9 10 11 12 13 14 15 16 17;
#X text -31 24 A bank of sinusoid oscillators responding to sigmund-format
messages;
#X text -34 5 sigmundosc~;
#X obj 6 269 outlet~;
#X obj 6 59 inlet;
#X text 45 60 sigmund <index freq mag flag> messages;
#X obj 356 64 inlet;
#X obj 367 141 inlet;
#X text 365 122 inlet 3: ramp time for sineoscs;
#X text 353 44 inlet 2: frequency scale factor;
#X text -29 318 2010-03-19 Dan Ellis dpwe@ee.columbia.edu;
#X obj 6 243 catch~ sum-bus-\$0;
#X obj 356 88 s freqscale-\$0;
#X obj 269 220 llop~ 5000;
#X obj 269 240 llop~ 5000;
#X obj 269 260 llop~ 5000;
#X obj 269 280 llop~ 5000;
#X obj 269 300 llop~ 5000;
#X obj 410 187 s fadetime;
#X obj 438 286 bonk~;
#X obj 172 259 hip~ 500;
#X obj 112 289 hsl 128 15 100 800 0 0 empty empty empty -2 -8 0 10
-262144 -1 -1 0 1;
#X floatatom 75 286 5 0 0 0 - - -, f 5;
#X obj 258 169 osc-bank-reduced \$0;
#X obj 6 109 ssineosc~ \$0;
#X obj 6 128 ssineosc~ \$0;
#X obj 6 147 ssineosc~ \$0;
#X obj 6 168 ssineosc~ \$0;
#X obj 6 187 ssineosc~ \$0;
#X obj 6 206 ssineosc~ \$0;
#X obj 80 206 ssineosc~ \$0;
#X obj 80 187 ssineosc~ \$0;
#X obj 154 206 ssineosc~ \$0;
#X obj 154 187 ssineosc~ \$0;
#X obj 154 168 ssineosc~ \$0;
#X obj 80 168 ssineosc~ \$0;
#X obj 80 147 ssineosc~ \$0;
#X obj 154 147 ssineosc~ \$0;
#X obj 154 128 ssineosc~ \$0;
#X obj 154 109 ssineosc~ \$0;
#X obj 80 128 ssineosc~ \$0;
#X obj 80 109 ssineosc~ \$0;
#X connect 1 0 2 0;
#X connect 1 0 21 0;
#X connect 3 0 27 0;
#X connect 3 1 28 0;
#X connect 3 2 29 0;
#X connect 3 3 44 0;
#X connect 3 4 43 0;
#X connect 3 5 39 0;
#X connect 3 6 42 0;
#X connect 3 7 41 0;
#X connect 3 8 40 0;
#X connect 3 9 30 0;
#X connect 3 10 31 0;
#X connect 3 11 32 0;
#X connect 3 12 38 0;
#X connect 3 13 34 0;
#X connect 3 14 33 0;
#X connect 3 15 37 0;
#X connect 3 16 36 0;
#X connect 3 17 35 0;
#X connect 7 0 26 0;
#X connect 9 0 15 0;
#X connect 10 0 1 0;
#X connect 14 0 6 0;
#X connect 16 0 17 0;
#X connect 17 0 18 0;
#X connect 18 0 19 0;
#X connect 19 0 20 0;
#X connect 24 0 23 1;
#X connect 24 0 25 0;
