#N canvas 524 175 866 423 10;
#X obj 14 69 inlet;
#X obj 33 322 *~;
#X obj 120 245 line~;
#X obj 120 219 pack 0 10;
#X obj 14 244 pack 0 10;
#X obj 14 269 line~;
#X text 30 360 Send it back to the global audio output summing bus
;
#X obj 14 220 *;
#X obj 83 123 select 1;
#X obj 82 219 f;
#X msg 65 150 0;
#X msg 99 150 0 0;
#X text 7 0 sineosc~.pd;
#X text 11 386 2010-03-19 Dan Ellis dpwe@ee.columbia.edu;
#X text 127 150 On new track \, reset amp to 0;
#X text 127 161 and make freq jump to new val;
#X text 138 113 3rd arg is 1 for a new track \,;
#X text 139 125 0 for continuation \, -1 for empty;
#X text 7 18 Single sinusoid oscillator for use with sigmund-style
;
#X text 7 30 <freq mag flag> messages;
#X text 7 44 Supports global scaling of frequency.;
#X obj 33 344 throw~ sum-bus-\$1;
#X text 144 344 \$1 creation arg makes sum-bus unique;
#X obj 29 190 r freqscale-\$1;
#X obj 171 190 r fadetime-\$1;
#X text 259 189 \$1 makes controls;
#X text 264 200 parent-specific;
#X obj 498 315 -;
#X obj 518 292 * 0.5;
#X obj 535 315 +;
#X obj 634 296 osc~;
#X obj 634 244 pack 0 10;
#X obj 634 269 line~;
#X text 543 205 [Brizo] Beating;
#X floatatom 488 369 5 0 0 0 - - -;
#X floatatom 488 383 5 0 0 0 - - -;
#X obj 624 383 -;
#X floatatom 624 403 5 0 0 0 - - -;
#X obj 440 222 f;
#X msg 533 258 1;
#X obj 518 169 inlet;
#X msg 473 260 bang;
#X obj 14 296 osc~;
#X obj 170 320 *~;
#X text 186 306 [Brizo];
#X obj 14 97 unpack f f f f;
#X text 187 294 4th param is on-off;
#X floatatom 338 322 5 0 0 0 - - -;
#X floatatom 204 69 5 0 0 0 - - -;
#X floatatom 252 73 5 0 0 0 - - -;
#X floatatom 305 72 5 0 0 0 - - -;
#X connect 0 0 45 0;
#X connect 1 0 21 0;
#X connect 2 0 43 0;
#X connect 3 0 2 0;
#X connect 4 0 5 0;
#X connect 5 0 42 0;
#X connect 7 0 4 0;
#X connect 8 0 11 0;
#X connect 8 0 10 0;
#X connect 8 1 9 0;
#X connect 8 1 38 0;
#X connect 9 0 4 1;
#X connect 10 0 4 1;
#X connect 11 0 2 0;
#X connect 23 0 7 1;
#X connect 24 0 3 1;
#X connect 24 0 9 1;
#X connect 24 0 38 1;
#X connect 27 0 34 0;
#X connect 28 0 27 1;
#X connect 28 0 29 1;
#X connect 29 0 31 0;
#X connect 29 0 35 0;
#X connect 31 0 32 0;
#X connect 32 0 30 0;
#X connect 34 0 36 0;
#X connect 35 0 36 1;
#X connect 36 0 37 0;
#X connect 38 0 31 1;
#X connect 39 0 28 0;
#X connect 40 0 28 0;
#X connect 40 0 41 0;
#X connect 41 0 27 0;
#X connect 41 0 29 0;
#X connect 42 0 1 0;
#X connect 43 0 1 1;
#X connect 45 0 27 0;
#X connect 45 0 29 0;
#X connect 45 0 7 0;
#X connect 45 0 48 0;
#X connect 45 1 3 0;
#X connect 45 1 49 0;
#X connect 45 2 8 0;
#X connect 45 2 50 0;
#X connect 45 3 43 1;
#X connect 45 3 47 0;
